<svg width="400" height="165" viewBox="0 0 400 165" xmlns="http://www.w3.org/2000/svg" font-family="'Segoe UI',Ubuntu,Sans-Serif"><rect x="0.5" y="0.5" width="399" height="164" rx="10" fill="#050F2C" stroke="#1F3A68"/><text x="22" y="40" fill="#00AEFF" font-weight="600" font-size="18">Citations</text><text x="382" y="38" text-anchor="end" font-size="11"><tspan fill="#8AA0C0">Total: </tspan><tspan font-weight="700" fill="#2DDE98">600</tspan><tspan fill="#8AA0C0">  |  h-index: </tspan><tspan font-weight="700" fill="#2DDE98">7</tspan></text><line x1="26" y1="128" x2="382" y2="128" stroke="#1F3A68"/><rect x="32.7" y="126.0" width="31.1" height="2.0" rx="2.5" fill="#2EA8FF"/><text x="48.2" y="122.0" fill="#FFFFFF" font-size="10" text-anchor="middle">5</text><text x="48.2" y="142.0" fill="#8AA0C0" font-size="10" text-anchor="middle">2019</text><rect x="77.2" y="117.4" width="31.1" height="10.6" rx="2.5" fill="#2EA8FF"/><text x="92.8" y="113.4" fill="#FFFFFF" font-size="10" text-anchor="middle">27</text><text x="92.8" y="142.0" fill="#8AA0C0" font-size="10" text-anchor="middle">2020</text><rect x="121.7" y="113.5" width="31.1" height="14.5" rx="2.5" fill="#2EA8FF"/><text x="137.2" y="109.5" fill="#FFFFFF" font-size="10" text-anchor="middle">37</text><text x="137.2" y="142.0" fill="#8AA0C0" font-size="10" text-anchor="middle">2021</text><rect x="166.2" y="99.4" width="31.1" height="28.6" rx="2.5" fill="#2EA8FF"/><text x="181.8" y="95.4" fill="#FFFFFF" font-size="10" text-anchor="middle">73</text><text x="181.8" y="142.0" fill="#8AA0C0" font-size="10" text-anchor="middle">2022</text><rect x="210.7" y="95.9" width="31.1" height="32.1" rx="2.5" fill="#2EA8FF"/><text x="226.2" y="91.9" fill="#FFFFFF" font-size="10" text-anchor="middle">82</text><text x="226.2" y="142.0" fill="#8AA0C0" font-size="10" text-anchor="middle">2023</text><rect x="255.2" y="85.3" width="31.1" height="42.7" rx="2.5" fill="#2EA8FF"/><text x="270.8" y="81.3" fill="#FFFFFF" font-size="10" text-anchor="middle">109</text><text x="270.8" y="142.0" fill="#8AA0C0" font-size="10" text-anchor="middle">2024</text><rect x="299.7" y="72.0" width="31.1" height="56.0" rx="2.5" fill="#2EA8FF"/><text x="315.2" y="68.0" fill="#FFFFFF" font-size="10" text-anchor="middle">143</text><text x="315.2" y="142.0" fill="#8AA0C0" font-size="10" text-anchor="middle">2025</text><rect x="344.2" y="81.4" width="31.1" height="46.6" rx="2.5" fill="#2EA8FF"/><text x="359.8" y="77.4" fill="#FFFFFF" font-size="10" text-anchor="middle">119</text><text x="359.8" y="142.0" fill="#8AA0C0" font-size="10" text-anchor="middle">2026</text></svg>