<svg width="320" height="165" viewBox="0 0 320 165" xmlns="http://www.w3.org/2000/svg" font-family="'Segoe UI',Ubuntu,Sans-Serif"><rect x="0.5" y="0.5" width="319" height="164" rx="10" fill="#050F2C" stroke="#1F3A68"/><text x="22" y="40" fill="#00AEFF" font-weight="600" font-size="18">Citations</text><text x="302" y="38" text-anchor="end" font-size="11"><tspan fill="#8AA0C0">Total: </tspan><tspan font-weight="700" fill="#2DDE98">595</tspan><tspan fill="#8AA0C0">  |  h-index: </tspan><tspan font-weight="700" fill="#2DDE98">7</tspan></text><line x1="26" y1="128" x2="302" y2="128" stroke="#1F3A68"/><rect x="31.2" y="126.0" width="24.1" height="2.0" rx="2.5" fill="#2EA8FF"/><text x="43.2" y="122.0" fill="#FFFFFF" font-size="10" text-anchor="middle">5</text><text x="43.2" y="142.0" fill="#8AA0C0" font-size="10" text-anchor="middle">2019</text><rect x="65.7" y="117.4" width="24.1" height="10.6" rx="2.5" fill="#2EA8FF"/><text x="77.8" y="113.4" fill="#FFFFFF" font-size="10" text-anchor="middle">27</text><text x="77.8" y="142.0" fill="#8AA0C0" font-size="10" text-anchor="middle">2020</text><rect x="100.2" y="113.4" width="24.1" height="14.6" rx="2.5" fill="#2EA8FF"/><text x="112.2" y="109.4" fill="#FFFFFF" font-size="10" text-anchor="middle">37</text><text x="112.2" y="142.0" fill="#8AA0C0" font-size="10" text-anchor="middle">2021</text><rect x="134.7" y="98.4" width="24.1" height="29.6" rx="2.5" fill="#2EA8FF"/><text x="146.8" y="94.4" fill="#FFFFFF" font-size="10" text-anchor="middle">75</text><text x="146.8" y="142.0" fill="#8AA0C0" font-size="10" text-anchor="middle">2022</text><rect x="169.2" y="95.7" width="24.1" height="32.3" rx="2.5" fill="#2EA8FF"/><text x="181.2" y="91.7" fill="#FFFFFF" font-size="10" text-anchor="middle">82</text><text x="181.2" y="142.0" fill="#8AA0C0" font-size="10" text-anchor="middle">2023</text><rect x="203.7" y="84.6" width="24.1" height="43.4" rx="2.5" fill="#2EA8FF"/><text x="215.8" y="80.6" fill="#FFFFFF" font-size="10" text-anchor="middle">110</text><text x="215.8" y="142.0" fill="#8AA0C0" font-size="10" text-anchor="middle">2024</text><rect x="238.2" y="72.0" width="24.1" height="56.0" rx="2.5" fill="#2EA8FF"/><text x="250.2" y="68.0" fill="#FFFFFF" font-size="10" text-anchor="middle">142</text><text x="250.2" y="142.0" fill="#8AA0C0" font-size="10" text-anchor="middle">2025</text><rect x="272.7" y="83.8" width="24.1" height="44.2" rx="2.5" fill="#2EA8FF"/><text x="284.8" y="79.8" fill="#FFFFFF" font-size="10" text-anchor="middle">112</text><text x="284.8" y="142.0" fill="#8AA0C0" font-size="10" text-anchor="middle">2026</text></svg>